/* XPM */
static char * F:\urjc\proyectos\cad\py_freecad\tutorial_freecad_wb\basic1_wb\icons\b1b_wb_xpm[] = {
"16 16 5 1",
" 	c None",
".	c #FFFFFF",
"+	c #000000",
"@	c #7F4F00",
"#	c #FFBF00",
"...++++++++++++.",
"..+@#########++.",
".+@#########+@+.",
".+++++++++++@#+.",
".+#########+##+.",
".+#########+##+.",
".+###++####+##+.",
".+####+####+##+.",
".+####+####+##+.",
".+####+####+##+.",
".+####+####+##+.",
".+####+####+##+.",
".+###+++###+##+.",
".+#########+#@+.",
".+#########+@+..",
".++++++++++++..."};
