/* XPM */
static char * C:\Users\felipe\urjc\proyectos\cad\py_freecad\tutorial_freecad_wb\imgs\b2_wb_flat_xpm[] = {
"16 16 8 1",
" 	c None",
".	c #FFFFFF",
"+	c #000000",
"@	c #6D5100",
"#	c #FFBF00",
"$	c #B88900",
"%	c #E5AB00",
"&	c #FEBE00",
"................",
"...++++++++++++.",
"..+@#########++.",
".+@#########+@+.",
".+++++++++++@#+.",
".+#########+##+.",
".+##$++$###+##+.",
".+##@%$+###+##+.",
".+####%+###+##+.",
".+###&+%###+##+.",
".+###+$####+##+.",
".+##+@#####+##+.",
".+##++++###+#@+.",
".+#########+@+..",
".++++++++++++...",
"................"};
