/* XPM */
static char * C:\Users\felipe\urjc\proyectos\cad\py_freecad\tutorial_freecad_wb\imgs\b3_wb_xpm[] = {
"16 16 7 1",
" 	c None",
".	c #FFFFFF",
"+	c #000000",
"@	c #7F4F00",
"#	c #FFBF00",
"$	c #B88900",
"%	c #6E5200",
"................",
"...++++++++++++.",
"..+@#########++.",
".+@#########+@+.",
".+++++++++++@#+.",
".+#########+##+.",
".+##$++$###+##+.",
".+##%#$+###+##+.",
".+####$+###+##+.",
".+###++$###+##+.",
".+####$+###+##+.",
".+##%#$+###+##+.",
".+##$++$###+#@+.",
".+#########+@+..",
".++++++++++++...",
"................"};
