/* XPM */
static char * C:\Users\felipe\urjc\proyectos\cad\py_freecad\tutorial_freecad_wb\imgs\b4_wb_xpm[] = {
"16 16 10 1",
" 	c None",
".	c #FFFFFF",
"+	c #000000",
"@	c #7F4F00",
"#	c #FFBF00",
"$	c #684D00",
"%	c #EBB000",
"&	c #9F7700",
"*	c #D39E00",
"=	c #FBBC00",
"................",
"...++++++++++++.",
"..+@#########++.",
".+@#########+@+.",
".+++++++++++@#+.",
".+#########+##+.",
".+####$+###+##+.",
".+###%++###+##+.",
".+###$&+###+##+.",
".+##*+=+###+##+.",
".+##+&#+###+##+.",
".+##+++++##+##+.",
".+#####+###+#@+.",
".+#########+@+..",
".++++++++++++...",
"................"};
